<svg width="391" height="245" viewBox="0 0 391 245" fill="none" xmlns="http://www.w3.org/2000/svg">
<rect width="391" height="245" rx="10" fill="#EF233C"/>
<g clip-path="url(#clip0_42_638)">
<path d="M226.7 113.263V140.158C226.7 142.28 224.954 144 222.8 144H168.2C166.046 144 164.3 142.28 164.3 140.158V113.263H226.7ZM205.25 71C212.789 71 218.9 77.0206 218.9 84.4474C218.9 86.5114 218.428 88.4668 217.585 90.2146L230.6 90.2106C232.754 90.2106 234.5 91.9307 234.5 94.0527V105.579C234.5 107.701 232.754 109.421 230.6 109.421H160.4C158.246 109.421 156.5 107.701 156.5 105.579V94.0527C156.5 91.9307 158.246 90.2106 160.4 90.2106L173.415 90.2146C172.572 88.4668 172.1 86.5114 172.1 84.4474C172.1 77.0206 178.211 71 185.75 71C189.572 71 193.027 72.5474 195.505 75.0411C197.973 72.5474 201.428 71 205.25 71ZM185.75 78.6842C182.519 78.6842 179.9 81.2645 179.9 84.4474C179.9 87.4431 182.22 89.9049 185.187 90.1842L185.75 90.2106H191.6V84.4474C191.6 81.4517 189.28 78.9899 186.313 78.7106L185.75 78.6842ZM205.25 78.6842L204.686 78.7106C201.905 78.9724 199.693 81.1525 199.427 83.8924L199.4 84.4474V90.2106H205.25L205.813 90.1842C208.78 89.9049 211.1 87.4431 211.1 84.4474C211.1 81.4517 208.78 78.9899 205.813 78.7106L205.25 78.6842Z" fill="white"/>
</g>
<path d="M105.76 177.52C108.88 177.52 111.653 178.347 114.08 180C116.507 181.653 118.2 183.947 119.16 186.88H111C110.44 185.787 109.733 185 108.88 184.52C108.027 184.04 106.987 183.8 105.76 183.8C103.493 183.8 101.68 184.533 100.32 186C98.9867 187.467 98.32 189.427 98.32 191.88C98.32 194.333 98.9867 196.293 100.32 197.76C101.68 199.227 103.493 199.96 105.76 199.96C107.387 199.96 108.707 199.56 109.72 198.76C110.76 197.933 111.453 196.84 111.8 195.48H103.88V190.28H119.16V195.48C118.84 197.16 118.08 198.827 116.88 200.48C115.68 202.133 114.12 203.507 112.2 204.6C110.28 205.693 108.133 206.24 105.76 206.24C103.12 206.24 100.693 205.627 98.48 204.4C96.2933 203.173 94.56 201.467 93.28 199.28C92 197.093 91.36 194.627 91.36 191.88C91.36 189.133 92 186.667 93.28 184.48C94.56 182.293 96.2933 180.587 98.48 179.36C100.693 178.133 103.12 177.52 105.76 177.52ZM122.947 178.32C122.947 177.173 123.334 176.213 124.107 175.44C124.88 174.667 125.827 174.28 126.947 174.28C128.067 174.28 129.014 174.667 129.787 175.44C130.56 176.213 130.947 177.173 130.947 178.32C130.947 179.44 130.56 180.387 129.787 181.16C129.014 181.933 128.067 182.32 126.947 182.32C125.827 182.32 124.88 181.933 124.107 181.16C123.334 180.387 122.947 179.44 122.947 178.32ZM130.387 183.68V206H123.547V183.68H130.387ZM146.158 189.36H143.318V206H136.478V189.36H134.398V183.68H136.478V182.84C136.478 180.013 137.225 177.947 138.718 176.64C140.238 175.333 142.612 174.68 145.838 174.68V180.48C144.932 180.48 144.278 180.653 143.878 181C143.505 181.347 143.318 181.96 143.318 182.84V183.68H146.158V189.36ZM161.756 200.2V206H158.276C155.769 206 153.823 205.453 152.436 204.36C151.076 203.24 150.396 201.333 150.396 198.64V189.36H148.316V183.68H150.396V178.24H157.236V183.68H161.716V189.36H157.236V198.64C157.236 199.173 157.396 199.573 157.716 199.84C158.036 200.08 158.569 200.2 159.316 200.2H161.756ZM191.19 177.52C194.31 177.52 197.083 178.347 199.51 180C201.936 181.653 203.63 183.947 204.59 186.88H196.43C195.87 185.787 195.163 185 194.31 184.52C193.456 184.04 192.416 183.8 191.19 183.8C188.923 183.8 187.11 184.533 185.75 186C184.416 187.467 183.75 189.427 183.75 191.88C183.75 194.333 184.416 196.293 185.75 197.76C187.11 199.227 188.923 199.96 191.19 199.96C192.416 199.96 193.456 199.72 194.31 199.24C195.163 198.76 195.87 197.973 196.43 196.88H204.59C203.63 199.813 201.936 202.107 199.51 203.76C197.083 205.413 194.31 206.24 191.19 206.24C188.55 206.24 186.123 205.627 183.91 204.4C181.723 203.173 179.99 201.467 178.71 199.28C177.43 197.093 176.79 194.627 176.79 191.88C176.79 189.133 177.43 186.667 178.71 184.48C179.99 182.293 181.723 180.587 183.91 179.36C186.123 178.133 188.55 177.52 191.19 177.52ZM217.497 183.44C220.35 183.44 222.537 184.493 224.057 186.6V183.68H230.897V206H224.057V202.76C222.403 205.107 220.217 206.28 217.497 206.28C215.657 206.28 213.95 205.8 212.377 204.84C210.83 203.88 209.603 202.533 208.697 200.8C207.79 199.067 207.337 197.093 207.337 194.88C207.337 192.667 207.79 190.693 208.697 188.96C209.603 187.227 210.83 185.88 212.377 184.92C213.95 183.933 215.657 183.44 217.497 183.44ZM219.177 189.36C218.377 189.36 217.59 189.573 216.817 190C216.07 190.4 215.457 191.013 214.977 191.84C214.523 192.667 214.297 193.68 214.297 194.88C214.297 196.08 214.523 197.093 214.977 197.92C215.457 198.72 216.07 199.333 216.817 199.76C217.563 200.16 218.35 200.36 219.177 200.36C219.977 200.36 220.75 200.16 221.497 199.76C222.27 199.333 222.883 198.707 223.337 197.88C223.817 197.053 224.057 196.04 224.057 194.84C224.057 193.64 223.817 192.64 223.337 191.84C222.883 191.013 222.283 190.4 221.537 190C220.79 189.573 220.003 189.36 219.177 189.36ZM243.746 187.84C244.493 186.48 245.413 185.413 246.506 184.64C247.6 183.84 248.813 183.44 250.146 183.44V190.4H248.466C246.893 190.4 245.706 190.773 244.906 191.52C244.133 192.267 243.746 193.573 243.746 195.44V206H236.906V183.68H243.746V187.84ZM262.379 183.44C265.233 183.44 267.419 184.493 268.939 186.6V176.4H275.779V206H268.939V202.76C267.286 205.107 265.099 206.28 262.379 206.28C260.539 206.28 258.833 205.8 257.259 204.84C255.713 203.88 254.486 202.533 253.579 200.8C252.673 199.067 252.219 197.093 252.219 194.88C252.219 192.667 252.673 190.693 253.579 188.96C254.486 187.227 255.713 185.88 257.259 184.92C258.833 183.933 260.539 183.44 262.379 183.44ZM264.059 189.36C263.259 189.36 262.473 189.573 261.699 190C260.953 190.4 260.339 191.013 259.859 191.84C259.406 192.667 259.179 193.68 259.179 194.88C259.179 196.08 259.406 197.093 259.859 197.92C260.339 198.72 260.953 199.333 261.699 199.76C262.446 200.16 263.233 200.36 264.059 200.36C264.859 200.36 265.633 200.16 266.379 199.76C267.153 199.333 267.766 198.707 268.219 197.88C268.699 197.053 268.939 196.04 268.939 194.84C268.939 193.64 268.699 192.64 268.219 191.84C267.766 191.013 267.166 190.4 266.419 190C265.673 189.573 264.886 189.36 264.059 189.36ZM289.909 183.44C292.576 183.44 294.789 184.093 296.549 185.4C298.309 186.707 299.242 188.493 299.349 190.76H292.349C292.269 189.987 292.002 189.467 291.549 189.2C291.096 188.907 290.416 188.76 289.509 188.76C288.656 188.76 287.989 188.907 287.509 189.2C287.056 189.467 286.829 189.867 286.829 190.4C286.829 191.013 287.162 191.467 287.829 191.76C288.522 192.027 289.642 192.333 291.189 192.68C292.869 193.027 294.256 193.4 295.349 193.8C296.469 194.173 297.429 194.8 298.229 195.68C299.029 196.533 299.429 197.707 299.429 199.2C299.429 200.587 299.016 201.813 298.189 202.88C297.389 203.947 296.269 204.787 294.829 205.4C293.416 205.987 291.829 206.28 290.069 206.28C287.296 206.28 285.002 205.667 283.189 204.44C281.376 203.187 280.389 201.347 280.229 198.92H287.229C287.336 199.64 287.629 200.16 288.109 200.48C288.589 200.8 289.256 200.96 290.109 200.96C290.909 200.96 291.562 200.773 292.069 200.4C292.602 200.027 292.869 199.573 292.869 199.04C292.869 198.4 292.509 197.933 291.789 197.64C291.069 197.32 289.936 197 288.389 196.68C286.709 196.333 285.322 195.973 284.229 195.6C283.162 195.227 282.229 194.627 281.429 193.8C280.656 192.947 280.269 191.813 280.269 190.4C280.269 189.12 280.629 187.96 281.349 186.92C282.096 185.853 283.189 185.013 284.629 184.4C286.096 183.76 287.856 183.44 289.909 183.44Z" fill="white"/>
<defs>
<clipPath id="clip0_42_638">
<rect width="78" height="78" fill="white" transform="translate(156.5 70)"/>
</clipPath>
</defs>
</svg>
