<svg width="412" height="245" viewBox="0 0 412 245" fill="none" xmlns="http://www.w3.org/2000/svg">
<rect width="412" height="245" rx="10" fill="#174A4B"/>
<path d="M185.321 77.9476L210.349 86.6448C216.172 88.6686 220.69 90.3895 223.901 91.8076C227.128 93.2313 229.565 94.551 231.21 95.7666C232.875 96.976 234.289 98.4198 235.45 100.098C236.491 101.603 237.096 103.252 237.264 105.044C237.452 106.831 237.241 108.604 236.629 110.362C236.026 112.097 234.627 113.536 232.432 114.679C230.237 115.821 227.498 116.564 224.214 116.907C227.234 118.824 229.334 120.802 230.513 122.841C231.712 124.874 231.913 127.039 231.114 129.337C229.749 133.265 226.908 135.647 222.589 136.485C221.644 136.669 220.715 136.78 219.803 136.818C218.891 136.856 217.819 136.785 216.586 136.607C215.354 136.428 214.145 136.205 212.961 135.938C211.782 135.66 210.217 135.221 208.267 134.623C206.318 134.024 204.408 133.413 202.539 132.79C200.69 132.16 198.242 131.316 195.193 130.257L170.166 121.559L173.582 117.701L179.822 118.608L190.113 88.9943L189.753 86.4494L183.366 83.5749L185.321 77.9476ZM206.468 91.6031L201.09 107.078L204.941 108.416C212.641 111.092 217.388 109.851 219.181 104.693C219.568 103.579 219.815 102.607 219.924 101.778C220.036 100.937 219.998 100.115 219.809 99.3139C219.636 98.518 219.254 97.807 218.662 97.181C218.075 96.5432 217.254 95.9296 216.201 95.34C215.151 94.7387 213.832 94.1621 212.244 93.6102L206.468 91.6031ZM199.135 112.706L195.224 123.96L200.999 125.967C204.866 127.311 207.738 127.843 209.615 127.562C211.509 127.287 212.818 126.106 213.543 124.02C214.04 122.589 214.026 121.336 213.501 120.26C212.996 119.178 211.914 118.152 210.256 117.181C208.601 116.199 206.178 115.153 202.985 114.044L199.135 112.706Z" fill="white"/>
<path d="M200.96 75.5956L208.543 78.2305L188.807 135.023L181.224 132.388L200.96 75.5956Z" fill="white"/>
<path d="M221.811 82.8416L229.394 85.4765L225.783 95.8654L218.201 93.2305L221.811 82.8416Z" fill="white"/>
<path d="M205.686 129.245L213.268 131.88L209.658 142.269L202.075 139.634L205.686 129.245Z" fill="white"/>
<path d="M93.24 177.92V183.12H85.56V206H78.72V183.12H71.08V177.92H93.24ZM104.176 187.84C104.923 186.48 105.843 185.413 106.936 184.64C108.029 183.84 109.243 183.44 110.576 183.44V190.4H108.896C107.323 190.4 106.136 190.773 105.336 191.52C104.563 192.267 104.176 193.573 104.176 195.44V206H97.3359V183.68H104.176V187.84ZM122.809 183.44C125.662 183.44 127.849 184.493 129.369 186.6V183.68H136.209V206H129.369V202.76C127.716 205.107 125.529 206.28 122.809 206.28C120.969 206.28 119.262 205.8 117.689 204.84C116.142 203.88 114.916 202.533 114.009 200.8C113.102 199.067 112.649 197.093 112.649 194.88C112.649 192.667 113.102 190.693 114.009 188.96C114.916 187.227 116.142 185.88 117.689 184.92C119.262 183.933 120.969 183.44 122.809 183.44ZM124.489 189.36C123.689 189.36 122.902 189.573 122.129 190C121.382 190.4 120.769 191.013 120.289 191.84C119.836 192.667 119.609 193.68 119.609 194.88C119.609 196.08 119.836 197.093 120.289 197.92C120.769 198.72 121.382 199.333 122.129 199.76C122.876 200.16 123.662 200.36 124.489 200.36C125.289 200.36 126.062 200.16 126.809 199.76C127.582 199.333 128.196 198.707 128.649 197.88C129.129 197.053 129.369 196.04 129.369 194.84C129.369 193.64 129.129 192.64 128.649 191.84C128.196 191.013 127.596 190.4 126.849 190C126.102 189.573 125.316 189.36 124.489 189.36ZM150.739 183.44C153.592 183.44 155.779 184.493 157.299 186.6V176.4H164.139V206H157.299V202.76C155.645 205.107 153.459 206.28 150.739 206.28C148.899 206.28 147.192 205.8 145.619 204.84C144.072 203.88 142.845 202.533 141.939 200.8C141.032 199.067 140.579 197.093 140.579 194.88C140.579 192.667 141.032 190.693 141.939 188.96C142.845 187.227 144.072 185.88 145.619 184.92C147.192 183.933 148.899 183.44 150.739 183.44ZM152.419 189.36C151.619 189.36 150.832 189.573 150.059 190C149.312 190.4 148.699 191.013 148.219 191.84C147.765 192.667 147.539 193.68 147.539 194.88C147.539 196.08 147.765 197.093 148.219 197.92C148.699 198.72 149.312 199.333 150.059 199.76C150.805 200.16 151.592 200.36 152.419 200.36C153.219 200.36 153.992 200.16 154.739 199.76C155.512 199.333 156.125 198.707 156.579 197.88C157.059 197.053 157.299 196.04 157.299 194.84C157.299 193.64 157.059 192.64 156.579 191.84C156.125 191.013 155.525 190.4 154.779 190C154.032 189.573 153.245 189.36 152.419 189.36ZM191.028 194.92C191.028 195.693 190.975 196.413 190.868 197.08H175.508C175.642 198.067 176.082 198.88 176.828 199.52C177.575 200.133 178.508 200.44 179.628 200.44C180.482 200.44 181.122 200.32 181.548 200.08C181.975 199.813 182.428 199.387 182.908 198.8H190.308C189.668 201.04 188.388 202.853 186.468 204.24C184.548 205.6 182.268 206.28 179.628 206.28C177.495 206.28 175.575 205.813 173.868 204.88C172.188 203.947 170.868 202.613 169.908 200.88C168.975 199.12 168.508 197.093 168.508 194.8C168.508 192.507 168.975 190.507 169.908 188.8C170.868 187.067 172.188 185.747 173.868 184.84C175.548 183.907 177.455 183.44 179.588 183.44C181.748 183.44 183.695 183.893 185.428 184.8C187.162 185.68 188.522 186.987 189.508 188.72C190.522 190.453 191.028 192.52 191.028 194.92ZM183.908 192.8C183.802 191.76 183.348 190.92 182.548 190.28C181.748 189.613 180.762 189.28 179.588 189.28C178.575 189.28 177.695 189.613 176.948 190.28C176.202 190.92 175.735 191.76 175.548 192.8H183.908ZM216.894 183.44C219.614 183.44 221.921 184.12 223.814 185.48C225.707 186.813 226.961 188.733 227.574 191.24H220.174C219.534 189.907 218.441 189.24 216.894 189.24C215.534 189.24 214.494 189.76 213.774 190.8C213.081 191.813 212.734 193.16 212.734 194.84C212.734 196.52 213.081 197.88 213.774 198.92C214.494 199.933 215.534 200.44 216.894 200.44C217.747 200.44 218.414 200.293 218.894 200C219.374 199.707 219.801 199.187 220.174 198.44H227.574C226.961 200.84 225.694 202.747 223.774 204.16C221.854 205.573 219.561 206.28 216.894 206.28C214.761 206.28 212.841 205.813 211.134 204.88C209.454 203.947 208.134 202.613 207.174 200.88C206.241 199.147 205.774 197.133 205.774 194.84C205.774 192.547 206.241 190.547 207.174 188.84C208.134 187.107 209.454 185.773 211.134 184.84C212.841 183.907 214.761 183.44 216.894 183.44ZM238.238 187.84C238.985 186.48 239.905 185.413 240.998 184.64C242.092 183.84 243.305 183.44 244.638 183.44V190.4H242.958C241.385 190.4 240.198 190.773 239.398 191.52C238.625 192.267 238.238 193.573 238.238 195.44V206H231.398V183.68H238.238V187.84ZM253.272 183.68L258.232 198.28L263.672 183.68H270.832L256.592 216.64H249.432L254.192 205.56L245.512 183.68H253.272ZM287.377 183.44C289.217 183.44 290.91 183.933 292.457 184.92C294.03 185.88 295.27 187.227 296.177 188.96C297.083 190.693 297.537 192.667 297.537 194.88C297.537 197.093 297.083 199.067 296.177 200.8C295.27 202.533 294.03 203.88 292.457 204.84C290.91 205.8 289.217 206.28 287.377 206.28C284.603 206.28 282.417 205.107 280.817 202.76V216.64H273.977V183.68H280.817V186.6C282.337 184.493 284.523 183.44 287.377 183.44ZM285.697 189.36C284.87 189.36 284.083 189.573 283.337 190C282.59 190.4 281.977 191.013 281.497 191.84C281.043 192.64 280.817 193.64 280.817 194.84C280.817 196.04 281.043 197.053 281.497 197.88C281.977 198.707 282.59 199.333 283.337 199.76C284.11 200.16 284.897 200.36 285.697 200.36C286.523 200.36 287.31 200.16 288.057 199.76C288.803 199.333 289.403 198.72 289.857 197.92C290.337 197.093 290.577 196.08 290.577 194.88C290.577 193.68 290.337 192.667 289.857 191.84C289.403 191.013 288.79 190.4 288.017 190C287.27 189.573 286.497 189.36 285.697 189.36ZM313.826 200.2V206H310.346C307.84 206 305.893 205.453 304.506 204.36C303.146 203.24 302.466 201.333 302.466 198.64V189.36H300.386V183.68H302.466V178.24H309.306V183.68H313.786V189.36H309.306V198.64C309.306 199.173 309.466 199.573 309.786 199.84C310.106 200.08 310.64 200.2 311.386 200.2H313.826ZM328.588 183.44C330.721 183.44 332.668 183.907 334.428 184.84C336.214 185.747 337.628 187.067 338.668 188.8C339.708 190.507 340.228 192.507 340.228 194.8C340.228 197.093 339.708 199.107 338.668 200.84C337.654 202.573 336.268 203.92 334.508 204.88C332.748 205.813 330.788 206.28 328.628 206.28C326.468 206.28 324.494 205.813 322.708 204.88C320.921 203.92 319.508 202.573 318.468 200.84C317.428 199.107 316.908 197.093 316.908 194.8C316.908 192.507 317.428 190.507 318.468 188.8C319.508 187.067 320.908 185.747 322.668 184.84C324.454 183.907 326.428 183.44 328.588 183.44ZM328.588 189.28C327.281 189.28 326.161 189.76 325.228 190.72C324.321 191.653 323.868 193.027 323.868 194.84C323.868 196.653 324.334 198.04 325.268 199C326.228 199.96 327.348 200.44 328.628 200.44C329.908 200.44 331.001 199.96 331.908 199C332.814 198.04 333.268 196.653 333.268 194.84C333.268 193.027 332.801 191.653 331.868 190.72C330.934 189.76 329.841 189.28 328.588 189.28Z" fill="white"/>
</svg>
